<svg xmlns="http://www.w3.org/2000/svg" width="65.876" height="52.701" viewBox="0 0 65.876 52.701">
  <path id="Icon_awesome-truck" d="M64.229,36.232H62.582V25.105a4.941,4.941,0,0,0-1.451-3.489L50.848,11.333a4.941,4.941,0,0,0-3.489-1.451H42.82V4.941A4.942,4.942,0,0,0,37.879,0H4.941A4.942,4.942,0,0,0,0,4.941V37.879A4.942,4.942,0,0,0,4.941,42.82H6.588a9.881,9.881,0,1,0,19.763,0H39.526a9.881,9.881,0,0,0,19.763,0h4.941a1.652,1.652,0,0,0,1.647-1.647V37.879A1.652,1.652,0,0,0,64.229,36.232ZM16.469,47.76A4.941,4.941,0,1,1,21.41,42.82,4.942,4.942,0,0,1,16.469,47.76Zm32.938,0a4.941,4.941,0,1,1,4.941-4.941A4.942,4.942,0,0,1,49.407,47.76Zm8.235-21.41H42.82V14.822h4.539L57.642,25.105Z" fill="#315bbc"/>
</svg>
