<svg xmlns="http://www.w3.org/2000/svg" width="18.099" height="16.088" viewBox="0 0 18.099 16.088">
  <path id="Icon_awesome-cart-plus" data-name="Icon awesome-cart-plus" d="M15.859,10.055H6.648l.206,1.005h8.434a.754.754,0,0,1,.735.921l-.173.763a1.76,1.76,0,1,1-2,.327H7.264A1.76,1.76,0,1,1,5.157,12.8L2.95,2.011H.754A.754.754,0,0,1,0,1.257v-.5A.754.754,0,0,1,.754,0H3.976a.754.754,0,0,1,.739.6L5,2.011H17.344a.754.754,0,0,1,.735.921L16.594,9.468A.754.754,0,0,1,15.859,10.055ZM12.82,5.279H11.312V4.022a.5.5,0,0,0-.5-.5h-.5a.5.5,0,0,0-.5.5V5.279H8.3a.5.5,0,0,0-.5.5v.5a.5.5,0,0,0,.5.5H9.8V8.044a.5.5,0,0,0,.5.5h.5a.5.5,0,0,0,.5-.5V6.787H12.82a.5.5,0,0,0,.5-.5v-.5A.5.5,0,0,0,12.82,5.279Z" fill="#315bbc"/>
</svg>
