<svg xmlns="http://www.w3.org/2000/svg" width="51.879" height="51.879" viewBox="0 0 51.879 51.879">
  <path id="Icon_awesome-phone-alt" d="M50.4,36.66,39.05,31.8a2.432,2.432,0,0,0-2.837.7l-5.026,6.14A37.558,37.558,0,0,1,13.233,20.682l6.14-5.026a2.426,2.426,0,0,0,.7-2.837L15.209,1.47A2.448,2.448,0,0,0,12.423.062L1.885,2.493A2.432,2.432,0,0,0,0,4.863,47.01,47.01,0,0,0,47.016,51.879a2.432,2.432,0,0,0,2.371-1.885l2.432-10.538a2.461,2.461,0,0,0-1.42-2.8Z" transform="translate(0 0)" fill="#315bbc"/>
</svg>
