<svg xmlns="http://www.w3.org/2000/svg" width="366.318" height="323.058" viewBox="0 0 366.318 323.058">
  <g id="undraw_shopping_app_flsj" transform="translate(-129.231 -95.817)">
    <path id="Caminho_26" data-name="Caminho 26" d="M927.068,704.661,884.53,674.574C898.877,660.6,911.925,640.7,924.4,618.2l42.538,30.087C949.944,667.589,935.545,686.534,927.068,704.661Z" transform="translate(-488.264 -325.287)" fill="#6c63ff"/>
    <circle id="Elipse_8" data-name="Elipse 8" cx="12.555" cy="12.555" r="12.555" transform="translate(426.26 322.231)" fill="#fff"/>
    <path id="Caminho_27" data-name="Caminho 27" d="M620.056,536.554h-4.669a.619.619,0,0,0-.619.619v2.05a.619.619,0,0,0,.619.619h.774v3.071h3.122v-3.071h.774a.619.619,0,0,0,.619-.619v-2.05A.619.619,0,0,0,620.056,536.554Z" transform="translate(-386.451 -294.473)" fill="#e6e6e6"/>
    <path id="Caminho_28" data-name="Caminho 28" d="M622.127,557.211a24.006,24.006,0,0,1-4.176-14.233.506.506,0,0,0-.4-.505v-.886h-4.932v.873h-.068a.506.506,0,0,0-.505.507c0,.012,0,.025,0,.037a21.907,21.907,0,0,1-3.936,14.57,1.4,1.4,0,0,0-.252.845l.539,16.68a1.444,1.444,0,0,0,1.432,1.394h11.154a1.444,1.444,0,0,0,1.432-1.418l.208-16.195A2.922,2.922,0,0,0,622.127,557.211Z" transform="translate(-383.845 -296.373)" fill="#6c63ff"/>
    <path id="Caminho_29" data-name="Caminho 29" d="M620.08,537.627a1.336,1.336,0,1,1-2.671,0" transform="translate(-387.448 -294.878)" opacity="0.2"/>
    <rect id="Retângulo_16" data-name="Retângulo 16" width="9.416" height="6.277" transform="translate(226.694 264.052)" fill="#fff"/>
    <path id="Caminho_30" data-name="Caminho 30" d="M854.6,641.218h-8.74a1.159,1.159,0,0,0-1.159,1.159v3.837a1.159,1.159,0,0,0,1.159,1.159h1.448v5.749h5.844v-5.749H854.6a1.159,1.159,0,0,0,1.159-1.159v-3.837a1.159,1.159,0,0,0-1.159-1.159Z" transform="translate(-473.232 -333.975)" fill="#e6e6e6"/>
    <path id="Caminho_31" data-name="Caminho 31" d="M858.478,679.886a44.937,44.937,0,0,1-7.818-26.643.947.947,0,0,0-.74-.946V650.64H840.69v1.635h-.127a.947.947,0,0,0-.946.948c0,.023,0,.046,0,.069a41.01,41.01,0,0,1-7.367,27.274,2.609,2.609,0,0,0-.472,1.582l1.009,31.223a2.7,2.7,0,0,0,2.68,2.609h20.88a2.7,2.7,0,0,0,2.682-2.655l.389-30.315A5.472,5.472,0,0,0,858.478,679.886Z" transform="translate(-468.355 -337.531)" fill="#6c63ff"/>
    <path id="Caminho_32" data-name="Caminho 32" d="M854.645,643.226a2.5,2.5,0,1,1-5,0" transform="translate(-475.098 -334.733)" opacity="0.2"/>
    <path id="Caminho_33" data-name="Caminho 33" d="M857.207,714.273H839.033a1.866,1.866,0,0,0-1.844,2.15l2.746,17.851h15.77l3.336-17.791a1.866,1.866,0,0,0-1.834-2.21Z" transform="translate(-470.388 -361.547)" fill="#fff"/>
    <path id="Caminho_34" data-name="Caminho 34" d="M788.961,715.136h-52.1c3.643-19.694,2.8-43.476,0-69.051h52.1C786.231,671.66,785.415,695.441,788.961,715.136Z" transform="translate(-432.53 -335.812)" fill="#6c63ff"/>
    <circle id="Elipse_9" data-name="Elipse 9" cx="12.555" cy="12.555" r="12.555" transform="translate(318.138 330.36)" fill="#fff"/>
    <path id="Caminho_35" data-name="Caminho 35" d="M322.243,312.351l11.7-1.063,7.443-18.076-13.291-7.444Z" transform="translate(-178.924 -150.342)" fill="#ffb8b8"/>
    <path id="Caminho_36" data-name="Caminho 36" d="M634.557,481.515h0a6.6,6.6,0,0,0-5.729-9.038l-18.161-1.083-2.674,8.892,18.7,5.134A6.6,6.6,0,0,0,634.557,481.515Z" transform="translate(-383.894 -269.881)" fill="#ffb8b8"/>
    <path id="Caminho_37" data-name="Caminho 37" d="M565.111,456.426l-.2-16.685L524.572,433.3,493.5,397.663a10.172,10.172,0,0,0-13.258-1.813h0a10.172,10.172,0,0,0-1.772,15.516L504.1,442.917Z" transform="translate(-333.948 -240.737)" fill="#575a89"/>
    <path id="Caminho_38" data-name="Caminho 38" d="M463.726,686.705h10.633l26.374-119.246L528.057,604.3l15.95,79.75h10.1l-2.127-85.6L516.36,507H481.27c-9.589,17.354-17.111,35.243-8.507,53.7Z" transform="translate(-329.445 -283.32)" fill="#2f2e41"/>
    <path id="Caminho_39" data-name="Caminho 39" d="M582.127,799.825a2.775,2.775,0,0,0,2.164,3.56L610.311,808a4.281,4.281,0,0,0,4.857-2.934h0a4.255,4.255,0,0,0-2.081-5.059,39.784,39.784,0,0,1-14.349-12.475c-2.86,2.663-6.056,2.413-9.45.45l-3.6.45Z" transform="translate(-374.084 -389.197)" fill="#2f2e41"/>
    <path id="Caminho_40" data-name="Caminho 40" d="M455.741,799.825a2.775,2.775,0,0,0,2.164,3.56L483.925,808a4.281,4.281,0,0,0,4.857-2.934h0a4.255,4.255,0,0,0-2.081-5.059,39.784,39.784,0,0,1-14.349-12.475c-2.86,2.663-6.056,2.413-9.45.45l-3.6.45Z" transform="translate(-326.384 -389.197)" fill="#2f2e41"/>
    <circle id="Elipse_10" data-name="Elipse 10" cx="14.887" cy="14.887" r="14.887" transform="translate(147.838 119.742)" fill="#ffb8b8"/>
    <path id="Caminho_41" data-name="Caminho 41" d="M480.853,466.512l38.811-1.063-11.4-35.873c7.083-11.355-.045-22.7-10.134-34.041l-7.975-5.317-12.76-1.063h0a31.325,31.325,0,0,0-8.435,21.822A140.573,140.573,0,0,0,480.853,466.512Z" transform="translate(-331.42 -238.842)" fill="#575a89"/>
    <path id="Caminho_42" data-name="Caminho 42" d="M616.78,540.854h0a6.6,6.6,0,0,0-1.712-10.563l-16.27-8.14-5.956,7.123,15.168,12.075A6.6,6.6,0,0,0,616.78,540.854Z" transform="translate(-378.176 -289.037)" fill="#ffb8b8"/>
    <path id="Caminho_43" data-name="Caminho 43" d="M562,491.759l6.38-15.418-34.554-21.786-14.55-44.993A10.172,10.172,0,0,0,507.8,402.68h0a10.172,10.172,0,0,0-7.733,13.568l11.159,39.093Z" transform="translate(-342.919 -243.886)" fill="#575a89"/>
    <path id="Caminho_44" data-name="Caminho 44" d="M470.13,343.817c0,5.792,3.762,14.763,8.507,18.608,3.192,2.587,7.412,2.478,9.038-1.063,1.669-3.633,7.421-12.173,17.545-17.545,13.5-7.161-4.786-19.413-17.545-17.545C478.087,327.676,470.13,334.127,470.13,343.817Z" transform="translate(-331.862 -215.037)" fill="#2f2e41"/>
    <circle id="Elipse_11" data-name="Elipse 11" cx="10.633" cy="10.633" r="10.633" transform="translate(136.673 99.539)" fill="#2f2e41"/>
    <path id="Caminho_45" data-name="Caminho 45" d="M498.326,312.257a10.627,10.627,0,0,0-9.836-10.593c.264-.02.528-.04.8-.04a10.633,10.633,0,1,1,0,21.267c-.269,0-.533-.021-.8-.04A10.627,10.627,0,0,0,498.326,312.257Z" transform="translate(-338.792 -205.806)" fill="#2f2e41"/>
    <ellipse id="Elipse_12" data-name="Elipse 12" cx="2.392" cy="3.19" rx="2.392" ry="3.19" transform="translate(160.598 133.565)" fill="#ffb8b8"/>
    <path id="Caminho_46" data-name="Caminho 46" d="M698.023,579.888H532.5l-35.052-165.7H467.529v-7.435H503.47l35.052,165.7h159.5Z" transform="translate(-233.758 -196.003)" fill="#3f3d56"/>
    <circle id="Elipse_13" data-name="Elipse 13" cx="15.933" cy="15.933" r="15.933" transform="translate(307.062 382.291)" fill="#3f3d56"/>
    <circle id="Elipse_14" data-name="Elipse 14" cx="15.933" cy="15.933" r="15.933" transform="translate(426.026 382.291)" fill="#3f3d56"/>
    <path id="Caminho_47" data-name="Caminho 47" d="M874.048,673.57H713L684.584,533.145h216.13a7.636,7.636,0,0,1,7.543,8.82L881.59,667.12A7.6,7.6,0,0,1,874.048,673.57Zm-159.3-2.124h159.3a5.482,5.482,0,0,0,5.443-4.656l26.667-125.155a5.51,5.51,0,0,0-5.444-6.366H687.163Z" transform="translate(-412.801 -293.186)" fill="#3f3d56"/>
    <path id="Caminho_48" data-name="Caminho 48" d="M613.232,594.183l-18.609-138.74,2.1-.346,18.609,138.74Z" transform="translate(-281.725 -214.249)" fill="#3f3d56"/>
    <path id="Caminho_49" data-name="Caminho 49" d="M789.44,593.12l-2.1-.34L805.408,455.1l2.1.34Z" transform="translate(-354.461 -214.251)" fill="#3f3d56"/>
    <rect id="Retângulo_17" data-name="Retângulo 17" width="2.124" height="138.74" transform="translate(383.556 241.021)" fill="#3f3d56"/>
    <rect id="Retângulo_18" data-name="Retângulo 18" width="2.124" height="205.637" transform="translate(282.629 280.319) rotate(-89.861)" fill="#3f3d56"/>
    <rect id="Retângulo_19" data-name="Retângulo 19" width="180.66" height="2.124" transform="translate(293.107 345.056) rotate(-0.392)" fill="#3f3d56"/>
    <ellipse id="Elipse_15" data-name="Elipse 15" cx="11.684" cy="6.373" rx="11.684" ry="6.373" transform="translate(225.274 207.031)" fill="#3f3d56"/>
  </g>
</svg>
